<svg xmlns="http://www.w3.org/2000/svg" id="SvgjsSvg2807" width="4096" height="1708.0847740439722" version="1.1" xmlns:xlink="http://www.w3.org/1999/xlink" xmlns:svgjs="http://svgjs.com/svgjs"><defs id="SvgjsDefs2808"></defs><g id="SvgjsG2809" transform="translate(328, 328) scale(34.4)" opacity="1"><defs id="SvgjsDefs1484"></defs><g id="SvgjsG1485" transform="scale(0.21645021645021648)" opacity="1"><g id="SvgjsG1486" class="Ds1U_EqWf" transform="translate(0, 0) scale(1)" light-content="false" fill="#333333"><path d="M0 0 h 461.9999999999999 v 3 h -461.9999999999999 Z M0 0 h 3 v 136.41720603478058 h -3 Z M461.9999999999999 136.41720603478058 h -0 v -3 h 0 ZM64.67999999999999 136.41720603478058 h -64.67999999999999 v -3 h 64.67999999999999 Z M461.9999999999999 136.41720603478058 h -3 v -0 h 3 ZM461.9999999999999 54.56688241391223 h -3 v -54.56688241391223 h 3 Z" fill-rule="nonzero"></path></g><g id="SvgjsG1487" class="text" transform="translate(144.9072673923955, 109.85782023892546) scale(1)" light-content="false" fill="#0c0c0c"><path d="M-68.91 -1.14L-95.67 -1.14L-95.67 -20.76L-72.51 -20.76L-72.51 -21.9L-95.67 -21.9L-95.67 -40.86L-69.81 -40.86L-69.81 -42L-96.87 -42L-96.87 0L-68.91 0Z M-58.35 -1.02C-56.15 -0.22 -53.81 0.18 -51.33 0.18C-47.57 0.18 -44.71 -0.55 -42.75 -2.01C-40.79 -3.47 -39.81 -5.42 -39.81 -7.86C-39.81 -9.74 -40.31 -11.21 -41.31 -12.27C-42.31 -13.33 -43.53 -14.1 -44.97 -14.58C-46.41 -15.06 -48.35 -15.54 -50.79 -16.02C-53.03 -16.42 -54.83 -16.84 -56.19 -17.28C-57.55 -17.72 -58.69 -18.41 -59.61 -19.35C-60.53 -20.29 -60.99 -21.58 -60.99 -23.22C-60.99 -25.26 -60.18 -26.91 -58.56 -28.17C-56.94 -29.43 -54.51 -30.06 -51.27 -30.06C-49.47 -30.06 -47.73 -29.8 -46.05 -29.28C-44.37 -28.76 -42.93 -28.02 -41.73 -27.06L-41.01 -28.02C-42.17 -28.98 -43.69 -29.75 -45.57 -30.33C-47.45 -30.91 -49.35 -31.2 -51.27 -31.2C-54.87 -31.2 -57.6 -30.43 -59.46 -28.89C-61.32 -27.35 -62.25 -25.46 -62.25 -23.22C-62.25 -21.26 -61.74 -19.73 -60.72 -18.63C-59.7 -17.53 -58.44 -16.73 -56.94 -16.23C-55.44 -15.73 -53.47 -15.26 -51.03 -14.82C-48.75 -14.38 -46.96 -13.95 -45.66 -13.53C-44.36 -13.11 -43.26 -12.45 -42.36 -11.55C-41.46 -10.65 -41.01 -9.42 -41.01 -7.86C-41.01 -5.7 -41.85 -4.01 -43.53 -2.79C-45.21 -1.57 -47.81 -0.96 -51.33 -0.96C-53.69 -0.96 -55.88 -1.35 -57.9 -2.13C-59.92 -2.91 -61.53 -3.88 -62.73 -5.04L-63.45 -4.08C-62.25 -2.84 -60.55 -1.82 -58.35 -1.02Z M-5.61 -15.54L-5.61 -15.84C-5.61 -18.8 -6.24 -21.44 -7.5 -23.76C-8.76 -26.08 -10.49 -27.9 -12.69 -29.22C-14.89 -30.54 -17.33 -31.2 -20.01 -31.2C-22.73 -31.2 -25.18 -30.53 -27.36 -29.19C-29.54 -27.85 -31.25 -25.99 -32.49 -23.61C-33.73 -21.23 -34.35 -18.54 -34.35 -15.54C-34.35 -12.54 -33.68 -9.84 -32.34 -7.44C-31 -5.04 -29.16 -3.17 -26.82 -1.83C-24.48 -0.49 -21.83 0.18 -18.87 0.18C-16.63 0.18 -14.51 -0.26 -12.51 -1.14C-10.51 -2.02 -8.83 -3.28 -7.47 -4.92L-8.31 -5.76C-9.51 -4.2 -11.04 -3.01 -12.9 -2.19C-14.76 -1.37 -16.75 -0.96 -18.87 -0.96C-21.59 -0.96 -24.04 -1.58 -26.22 -2.82C-28.4 -4.06 -30.11 -5.79 -31.35 -8.01C-32.59 -10.23 -33.21 -12.74 -33.21 -15.54ZM-26.55 -28.32C-24.59 -29.48 -22.41 -30.06 -20.01 -30.06C-17.61 -30.06 -15.43 -29.48 -13.47 -28.32C-11.51 -27.16 -9.93 -25.56 -8.73 -23.52C-7.53 -21.48 -6.87 -19.2 -6.75 -16.68L-33.21 -16.68C-33.09 -19.2 -32.44 -21.48 -31.26 -23.52C-30.08 -25.56 -28.51 -27.16 -26.55 -28.32Z M27.87 -27.87C25.67 -30.09 22.63 -31.2 18.75 -31.2C15.51 -31.2 12.77 -30.45 10.53 -28.95C8.29 -27.45 6.69 -25.38 5.73 -22.74L5.73 -31.02L4.53 -31.02L4.53 0L5.73 0L5.73 -16.86C5.73 -20.82 6.9 -24.01 9.24 -26.43C11.58 -28.85 14.77 -30.06 18.81 -30.06C22.37 -30.06 25.12 -29.05 27.06 -27.03C29 -25.01 29.97 -22.1 29.97 -18.3L29.97 0L31.17 0L31.17 -18.3C31.17 -22.46 30.07 -25.65 27.87 -27.87Z M48.33 -1.83C50.65 -0.49 53.27 0.18 56.19 0.18C58.47 0.18 60.58 -0.25 62.52 -1.11C64.46 -1.97 66.07 -3.22 67.35 -4.86L66.51 -5.76C65.35 -4.16 63.87 -2.96 62.07 -2.16C60.27 -1.36 58.31 -0.96 56.19 -0.96C53.51 -0.96 51.1 -1.58 48.96 -2.82C46.82 -4.06 45.15 -5.78 43.95 -7.98C42.75 -10.18 42.15 -12.7 42.15 -15.54C42.15 -18.34 42.75 -20.85 43.95 -23.07C45.15 -25.29 46.82 -27.01 48.96 -28.23C51.1 -29.45 53.51 -30.06 56.19 -30.06C58.31 -30.06 60.27 -29.66 62.07 -28.86C63.87 -28.06 65.35 -26.86 66.51 -25.26L67.35 -26.16C66.07 -27.8 64.46 -29.05 62.52 -29.91C60.58 -30.77 58.47 -31.2 56.19 -31.2C53.27 -31.2 50.65 -30.54 48.33 -29.22C46.01 -27.9 44.2 -26.05 42.9 -23.67C41.6 -21.29 40.95 -18.58 40.95 -15.54C40.95 -12.5 41.6 -9.79 42.9 -7.41C44.2 -5.03 46.01 -3.17 48.33 -1.83Z M95.46 -28.41C93.56 -30.27 90.81 -31.2 87.21 -31.2C84.89 -31.2 82.67 -30.79 80.55 -29.97C78.43 -29.15 76.63 -28.02 75.15 -26.58L75.99 -25.74C77.39 -27.06 79.06 -28.11 81 -28.89C82.94 -29.67 85.03 -30.06 87.27 -30.06C90.51 -30.06 92.96 -29.24 94.62 -27.6C96.28 -25.96 97.11 -23.52 97.11 -20.28L97.11 -16.86L85.35 -16.86C81.47 -16.86 78.66 -16.09 76.92 -14.55C75.18 -13.01 74.31 -11 74.31 -8.52C74.31 -5.88 75.28 -3.77 77.22 -2.19C79.16 -0.61 81.85 0.18 85.29 0.18C88.13 0.18 90.56 -0.42 92.58 -1.62C94.6 -2.82 96.11 -4.48 97.11 -6.6L97.11 0L98.31 0L98.31 -20.34C98.31 -23.86 97.36 -26.55 95.46 -28.41ZM97.11 -8.88C94.99 -3.6 91.05 -0.96 85.29 -0.96C82.21 -0.96 79.81 -1.64 78.09 -3C76.37 -4.36 75.51 -6.22 75.51 -8.58C75.51 -10.78 76.3 -12.52 77.88 -13.8C79.46 -15.08 81.93 -15.72 85.29 -15.72L97.11 -15.72Z"></path></g><g id="SvgjsG1488" class="text" transform="translate(338.9627965545163, 110.21782023892546) scale(1)" light-content="false" fill="#444444"><path d="M-83.49 -36.84L-66.09 -36.84L-66.09 -42.36L-90.33 -42.36L-90.33 0L-66.09 0L-66.09 -5.58L-83.49 -5.58L-83.49 -18.72L-67.89 -18.72L-67.89 -24L-83.49 -24Z M-39.87 0L-32.13 0L-43.47 -16.38L-32.55 -33.06L-40.11 -33.06L-47.13 -21.66L-55.05 -33.06L-62.79 -33.06L-51.75 -17.16L-62.67 0L-55.05 0L-47.97 -11.7Z M-0.72 -31.44C-2.98 -32.8 -5.55 -33.48 -8.43 -33.48C-11.43 -33.48 -13.99 -32.74 -16.11 -31.26C-18.23 -29.78 -19.71 -27.82 -20.55 -25.38L-20.55 -33.06L-27.39 -33.06L-27.39 15.72L-20.55 15.72L-20.55 -7.68C-19.71 -5.24 -18.23 -3.28 -16.11 -1.8C-13.99 -0.32 -11.43 0.42 -8.43 0.42C-5.55 0.42 -2.98 -0.26 -0.72 -1.62C1.54 -2.98 3.31 -4.94 4.59 -7.5C5.87 -10.06 6.51 -13.08 6.51 -16.56C6.51 -20 5.87 -23 4.59 -25.56C3.31 -28.12 1.54 -30.08 -0.72 -31.44ZM-15.69 -26.13C-14.17 -27.03 -12.45 -27.48 -10.53 -27.48C-7.49 -27.48 -5.05 -26.5 -3.21 -24.54C-1.37 -22.58 -0.45 -19.92 -0.45 -16.56C-0.45 -13.16 -1.37 -10.49 -3.21 -8.55C-5.05 -6.61 -7.49 -5.64 -10.53 -5.64C-12.45 -5.64 -14.17 -6.09 -15.69 -6.99C-17.21 -7.89 -18.41 -9.16 -19.29 -10.8C-20.17 -12.44 -20.61 -14.36 -20.61 -16.56C-20.61 -18.72 -20.17 -20.63 -19.29 -22.29C-18.41 -23.95 -17.21 -25.23 -15.69 -26.13Z M36.87 -31.44C34.31 -32.8 31.43 -33.48 28.23 -33.48C25.03 -33.48 22.16 -32.8 19.62 -31.44C17.08 -30.08 15.08 -28.12 13.62 -25.56C12.16 -23 11.43 -20 11.43 -16.56C11.43 -13.12 12.16 -10.11 13.62 -7.53C15.08 -4.95 17.08 -2.98 19.62 -1.62C22.16 -0.26 25.03 0.42 28.23 0.42C31.43 0.42 34.31 -0.26 36.87 -1.62C39.43 -2.98 41.43 -4.94 42.87 -7.5C44.31 -10.06 45.03 -13.08 45.03 -16.56C45.03 -20 44.31 -23 42.87 -25.56C41.43 -28.12 39.43 -30.08 36.87 -31.44ZM23.37 -26.34C24.85 -27.14 26.47 -27.54 28.23 -27.54C29.99 -27.54 31.61 -27.14 33.09 -26.34C34.57 -25.54 35.76 -24.31 36.66 -22.65C37.56 -20.99 38.01 -18.96 38.01 -16.56C38.01 -14.12 37.56 -12.08 36.66 -10.44C35.76 -8.8 34.57 -7.58 33.09 -6.78C31.61 -5.98 29.99 -5.58 28.23 -5.58C26.47 -5.58 24.85 -5.98 23.37 -6.78C21.89 -7.58 20.7 -8.8 19.8 -10.44C18.9 -12.08 18.45 -14.12 18.45 -16.56C18.45 -18.96 18.9 -20.99 19.8 -22.65C20.7 -24.31 21.89 -25.54 23.37 -26.34Z M63.27 -31.71C61.19 -30.45 59.59 -28.74 58.47 -26.58L58.47 -33.06L51.63 -33.06L51.63 0L58.47 0L58.47 -16.74C58.47 -20.1 59.38 -22.51 61.2 -23.97C63.02 -25.43 65.43 -26.16 68.43 -26.16L70.47 -26.16L70.47 -33.6C67.75 -33.6 65.35 -32.97 63.27 -31.71Z M92.19 -5.94L88.89 -5.94C87.13 -5.94 85.9 -6.3 85.2 -7.02C84.5 -7.74 84.15 -9.04 84.15 -10.92L84.15 -27.24L92.13 -27.24L92.13 -33.06L84.15 -33.06L84.15 -41.28L77.25 -41.28L77.25 -33.06L72.51 -33.06L72.51 -27.24L77.25 -27.24L77.25 -11.04C77.25 -7.08 78.16 -4.25 79.98 -2.55C81.8 -0.85 84.47 0 87.99 0L92.19 0Z"></path></g><g id="SvgjsG1489" class="text" transform="translate(175.79057591057395, 141.13340610931613) scale(1)" light-content="false" fill="#444444"><path d="M-109.78 -14.55C-109.78 -14.32 -109.72 -14.12 -109.61 -13.95C-109.5 -13.79 -109.34 -13.71 -109.15 -13.71L-105.75 -13.71L-105.75 -0.63C-105.75 -0.43 -105.66 -0.28 -105.48 -0.17C-105.31 -0.06 -105.1 0 -104.86 0C-104.63 0 -104.42 -0.06 -104.24 -0.17C-104.07 -0.28 -103.98 -0.43 -103.98 -0.63L-103.98 -13.71L-100.6 -13.71C-100.4 -13.71 -100.25 -13.8 -100.14 -13.97C-100.03 -14.13 -99.97 -14.33 -99.97 -14.55C-99.97 -14.76 -100.03 -14.95 -100.14 -15.11C-100.25 -15.27 -100.4 -15.35 -100.6 -15.35L-109.15 -15.35C-109.34 -15.35 -109.5 -15.27 -109.61 -15.11C-109.72 -14.95 -109.78 -14.76 -109.78 -14.55Z M-100.41 -0.63C-100.41 -0.46 -100.33 -0.31 -100.16 -0.19C-99.99 -0.06 -99.79 0 -99.55 0C-99.31 0 -99.11 -0.07 -98.93 -0.2C-98.76 -0.33 -98.67 -0.48 -98.67 -0.63L-98.67 -5.42C-98.67 -6.33 -98.4 -7.07 -97.87 -7.64C-97.34 -8.22 -96.72 -8.51 -96 -8.51L-95.29 -8.51C-95.11 -8.51 -94.95 -8.58 -94.81 -8.74C-94.68 -8.89 -94.62 -9.07 -94.62 -9.28C-94.62 -9.49 -94.68 -9.68 -94.81 -9.84C-94.95 -10 -95.11 -10.08 -95.29 -10.08L-96 -10.08C-96.6 -10.08 -97.15 -9.91 -97.64 -9.58C-98.13 -9.24 -98.5 -8.83 -98.75 -8.36L-98.75 -9.35C-98.75 -9.53 -98.83 -9.67 -98.98 -9.79C-99.14 -9.9 -99.33 -9.95 -99.55 -9.95C-99.8 -9.95 -100.01 -9.9 -100.17 -9.79C-100.33 -9.67 -100.41 -9.53 -100.41 -9.35Z M-93.84 -2.62C-93.84 -1.72 -93.58 -1.02 -93.05 -0.55C-92.53 -0.07 -91.84 0.17 -91 0.17C-89.84 0.17 -88.78 -0.38 -87.83 -1.47L-87.83 -0.63C-87.83 -0.45 -87.76 -0.3 -87.6 -0.18C-87.45 -0.06 -87.26 0 -87.03 0C-86.78 0 -86.58 -0.06 -86.41 -0.18C-86.25 -0.3 -86.17 -0.45 -86.17 -0.63L-86.17 -6.01C-86.17 -7.17 -86.5 -8.14 -87.15 -8.91C-87.8 -9.69 -88.81 -10.08 -90.18 -10.08C-90.9 -10.08 -91.57 -9.96 -92.21 -9.71C-92.85 -9.47 -93.17 -9.18 -93.17 -8.86C-93.17 -8.65 -93.11 -8.45 -92.99 -8.26C-92.87 -8.07 -92.71 -7.98 -92.52 -7.98C-92.47 -7.98 -92.23 -8.08 -91.78 -8.28C-91.33 -8.49 -90.81 -8.59 -90.23 -8.59C-89.46 -8.59 -88.88 -8.33 -88.49 -7.81C-88.11 -7.29 -87.92 -6.69 -87.92 -5.98L-87.92 -5.54L-88.92 -5.54C-90.52 -5.54 -91.74 -5.33 -92.58 -4.9C-93.42 -4.48 -93.84 -3.72 -93.84 -2.62ZM-92.07 -2.81C-92.07 -3.11 -92.01 -3.36 -91.89 -3.56C-91.76 -3.76 -91.6 -3.92 -91.39 -4.04C-91.19 -4.16 -90.93 -4.25 -90.61 -4.32C-90.3 -4.38 -90 -4.42 -89.7 -4.44C-89.41 -4.46 -89.06 -4.47 -88.65 -4.47L-87.92 -4.47L-87.92 -3.38C-87.92 -2.89 -88.19 -2.41 -88.75 -1.94C-89.3 -1.47 -89.87 -1.24 -90.46 -1.24C-90.95 -1.24 -91.34 -1.37 -91.63 -1.64C-91.93 -1.9 -92.07 -2.3 -92.07 -2.81Z M-84.16 -3.91C-84.16 -2.84 -83.79 -1.9 -83.04 -1.07C-82.3 -0.25 -81.44 0.17 -80.46 0.17C-79.83 0.17 -79.25 0.01 -78.72 -0.31C-78.19 -0.64 -77.8 -1.02 -77.56 -1.47L-77.56 -0.63C-77.56 -0.46 -77.48 -0.31 -77.32 -0.19C-77.16 -0.06 -76.98 0 -76.77 0C-76.53 0 -76.32 -0.06 -76.16 -0.19C-75.99 -0.31 -75.9 -0.46 -75.9 -0.63L-75.9 -15.35C-75.9 -15.53 -75.99 -15.68 -76.15 -15.79C-76.31 -15.9 -76.51 -15.96 -76.77 -15.96C-77.02 -15.96 -77.23 -15.9 -77.4 -15.79C-77.56 -15.68 -77.65 -15.53 -77.65 -15.35L-77.65 -8.48C-77.9 -8.93 -78.26 -9.31 -78.74 -9.62C-79.22 -9.93 -79.77 -10.08 -80.4 -10.08C-81.42 -10.08 -82.3 -9.68 -83.04 -8.89C-83.79 -8.1 -84.16 -7.15 -84.16 -6.05ZM-82.41 -3.91L-82.41 -6.05C-82.41 -6.68 -82.18 -7.24 -81.7 -7.75C-81.22 -8.25 -80.66 -8.51 -80.02 -8.51C-79.39 -8.51 -78.84 -8.28 -78.36 -7.82C-77.89 -7.37 -77.65 -6.78 -77.65 -6.05L-77.65 -3.34C-77.65 -2.99 -77.89 -2.58 -78.38 -2.11C-78.87 -1.64 -79.43 -1.41 -80.04 -1.41C-80.67 -1.41 -81.22 -1.66 -81.7 -2.17C-82.18 -2.68 -82.41 -3.26 -82.41 -3.91Z M-73.78 -3.91C-73.78 -2.69 -73.35 -1.7 -72.48 -0.96C-71.61 -0.21 -70.49 0.17 -69.12 0.17C-68.18 0.17 -67.4 0 -66.76 -0.34C-66.12 -0.67 -65.8 -1 -65.8 -1.32C-65.8 -1.5 -65.87 -1.68 -66.01 -1.86C-66.15 -2.03 -66.32 -2.12 -66.52 -2.12C-66.64 -2.12 -66.81 -2.05 -67.02 -1.92C-67.23 -1.79 -67.51 -1.65 -67.85 -1.51C-68.19 -1.37 -68.6 -1.3 -69.06 -1.3C-69.94 -1.3 -70.66 -1.53 -71.21 -1.99C-71.76 -2.46 -72.04 -3.07 -72.04 -3.84L-72.04 -4.47L-67.44 -4.47C-67.15 -4.47 -66.91 -4.49 -66.74 -4.52C-66.56 -4.54 -66.37 -4.61 -66.17 -4.71C-65.97 -4.82 -65.82 -4.99 -65.72 -5.24C-65.62 -5.48 -65.57 -5.81 -65.57 -6.22C-65.57 -7.32 -65.97 -8.24 -66.77 -8.98C-67.57 -9.71 -68.51 -10.08 -69.6 -10.08C-70.75 -10.08 -71.74 -9.69 -72.56 -8.9C-73.37 -8.12 -73.78 -7.19 -73.78 -6.11ZM-72.04 -5.65L-72.04 -6.4C-72.04 -7.05 -71.8 -7.59 -71.33 -8.03C-70.85 -8.47 -70.28 -8.69 -69.63 -8.69C-68.95 -8.69 -68.39 -8.46 -67.92 -7.98C-67.46 -7.5 -67.23 -6.95 -67.23 -6.32C-67.23 -6.06 -67.29 -5.88 -67.42 -5.79C-67.55 -5.69 -67.79 -5.65 -68.16 -5.65Z M-59.19 -0.63C-59.19 -0.43 -59.1 -0.28 -58.93 -0.17C-58.75 -0.06 -58.54 0 -58.31 0C-58.07 0 -57.86 -0.06 -57.69 -0.17C-57.51 -0.28 -57.42 -0.43 -57.42 -0.63L-57.42 -14.74C-57.42 -14.94 -57.51 -15.09 -57.69 -15.19C-57.86 -15.3 -58.07 -15.35 -58.31 -15.35C-58.54 -15.35 -58.75 -15.3 -58.93 -15.19C-59.1 -15.09 -59.19 -14.94 -59.19 -14.74Z M-54.8 -0.63C-54.8 -0.46 -54.72 -0.31 -54.55 -0.19C-54.38 -0.06 -54.18 0 -53.94 0C-53.71 0 -53.51 -0.07 -53.33 -0.2C-53.15 -0.33 -53.06 -0.48 -53.06 -0.63L-53.06 -6.05C-53.06 -6.78 -52.83 -7.37 -52.36 -7.82C-51.9 -8.28 -51.37 -8.51 -50.77 -8.51C-50.12 -8.51 -49.56 -8.25 -49.09 -7.75C-48.61 -7.24 -48.37 -6.68 -48.37 -6.05L-48.37 -0.63C-48.37 -0.43 -48.29 -0.28 -48.11 -0.17C-47.94 -0.06 -47.74 0 -47.51 0C-47.27 0 -47.07 -0.06 -46.89 -0.17C-46.72 -0.28 -46.63 -0.43 -46.63 -0.63L-46.63 -6.05C-46.63 -7.15 -47 -8.1 -47.73 -8.89C-48.47 -9.68 -49.33 -10.08 -50.33 -10.08C-50.98 -10.08 -51.56 -9.93 -52.06 -9.62C-52.56 -9.31 -52.92 -8.93 -53.14 -8.48L-53.14 -9.35C-53.14 -9.51 -53.22 -9.66 -53.38 -9.78C-53.54 -9.89 -53.73 -9.95 -53.94 -9.95C-54.19 -9.95 -54.4 -9.9 -54.56 -9.79C-54.72 -9.67 -54.8 -9.53 -54.8 -9.35Z M-44.28 -3.17C-44.28 -1.06 -43.12 0 -40.79 0L-40.14 0C-39.92 0 -39.74 -0.08 -39.6 -0.23C-39.46 -0.38 -39.39 -0.57 -39.39 -0.78C-39.39 -0.99 -39.45 -1.17 -39.59 -1.31C-39.72 -1.46 -39.9 -1.53 -40.14 -1.53L-40.79 -1.53C-41.44 -1.53 -41.89 -1.66 -42.15 -1.9C-42.41 -2.15 -42.54 -2.57 -42.54 -3.17L-42.54 -8.59L-39.89 -8.59C-39.74 -8.59 -39.61 -8.66 -39.51 -8.79C-39.41 -8.92 -39.36 -9.08 -39.36 -9.26C-39.36 -9.44 -39.41 -9.6 -39.51 -9.74C-39.61 -9.88 -39.74 -9.95 -39.89 -9.95L-42.54 -9.95L-42.54 -13.99C-42.54 -14.15 -42.63 -14.3 -42.81 -14.42C-42.99 -14.54 -43.19 -14.59 -43.42 -14.59C-43.63 -14.59 -43.82 -14.54 -44.01 -14.42C-44.19 -14.3 -44.28 -14.15 -44.28 -13.99Z M-38.27 -3.91C-38.27 -2.69 -37.84 -1.7 -36.97 -0.96C-36.1 -0.21 -34.98 0.17 -33.61 0.17C-32.67 0.17 -31.89 0 -31.25 -0.34C-30.61 -0.67 -30.29 -1 -30.29 -1.32C-30.29 -1.5 -30.36 -1.68 -30.5 -1.86C-30.64 -2.03 -30.81 -2.12 -31.01 -2.12C-31.13 -2.12 -31.3 -2.05 -31.51 -1.92C-31.72 -1.79 -32 -1.65 -32.34 -1.51C-32.68 -1.37 -33.09 -1.3 -33.55 -1.3C-34.43 -1.3 -35.15 -1.53 -35.7 -1.99C-36.25 -2.46 -36.53 -3.07 -36.53 -3.84L-36.53 -4.47L-31.93 -4.47C-31.64 -4.47 -31.4 -4.49 -31.23 -4.52C-31.05 -4.54 -30.86 -4.61 -30.66 -4.71C-30.46 -4.82 -30.31 -4.99 -30.21 -5.24C-30.11 -5.48 -30.06 -5.81 -30.06 -6.22C-30.06 -7.32 -30.46 -8.24 -31.26 -8.98C-32.06 -9.71 -33 -10.08 -34.09 -10.08C-35.24 -10.08 -36.23 -9.69 -37.04 -8.9C-37.86 -8.12 -38.27 -7.19 -38.27 -6.11ZM-36.53 -5.65L-36.53 -6.4C-36.53 -7.05 -36.29 -7.59 -35.82 -8.03C-35.34 -8.47 -34.77 -8.69 -34.11 -8.69C-33.44 -8.69 -32.88 -8.46 -32.41 -7.98C-31.95 -7.5 -31.72 -6.95 -31.72 -6.32C-31.72 -6.06 -31.78 -5.88 -31.91 -5.79C-32.04 -5.69 -32.28 -5.65 -32.64 -5.65Z M-28.13 -0.63C-28.13 -0.46 -28.05 -0.31 -27.88 -0.19C-27.71 -0.06 -27.51 0 -27.27 0C-27.03 0 -26.82 -0.07 -26.65 -0.2C-26.47 -0.33 -26.39 -0.48 -26.39 -0.63L-26.39 -5.42C-26.39 -6.33 -26.12 -7.07 -25.59 -7.64C-25.06 -8.22 -24.43 -8.51 -23.72 -8.51L-23.01 -8.51C-22.82 -8.51 -22.67 -8.58 -22.53 -8.74C-22.4 -8.89 -22.33 -9.07 -22.33 -9.28C-22.33 -9.49 -22.4 -9.68 -22.53 -9.84C-22.67 -10 -22.82 -10.08 -23.01 -10.08L-23.72 -10.08C-24.32 -10.08 -24.87 -9.91 -25.36 -9.58C-25.85 -9.24 -26.22 -8.83 -26.47 -8.36L-26.47 -9.35C-26.47 -9.53 -26.55 -9.67 -26.7 -9.79C-26.86 -9.9 -27.04 -9.95 -27.27 -9.95C-27.52 -9.95 -27.73 -9.9 -27.89 -9.79C-28.05 -9.67 -28.13 -9.53 -28.13 -9.35Z M-20.91 -0.63C-20.91 -0.46 -20.82 -0.31 -20.65 -0.19C-20.49 -0.06 -20.28 0 -20.04 0C-19.82 0 -19.62 -0.07 -19.44 -0.2C-19.25 -0.33 -19.16 -0.48 -19.16 -0.63L-19.16 -6.05C-19.16 -6.78 -18.93 -7.37 -18.47 -7.82C-18.01 -8.28 -17.48 -8.51 -16.87 -8.51C-16.23 -8.51 -15.67 -8.25 -15.19 -7.75C-14.72 -7.24 -14.48 -6.68 -14.48 -6.05L-14.48 -0.63C-14.48 -0.43 -14.39 -0.28 -14.22 -0.17C-14.04 -0.06 -13.84 0 -13.62 0C-13.38 0 -13.17 -0.06 -13 -0.17C-12.82 -0.28 -12.74 -0.43 -12.74 -0.63L-12.74 -6.05C-12.74 -7.15 -13.1 -8.1 -13.84 -8.89C-14.57 -9.68 -15.44 -10.08 -16.43 -10.08C-17.09 -10.08 -17.67 -9.93 -18.16 -9.62C-18.66 -9.31 -19.02 -8.93 -19.25 -8.48L-19.25 -9.35C-19.25 -9.51 -19.33 -9.66 -19.49 -9.78C-19.65 -9.89 -19.83 -9.95 -20.04 -9.95C-20.3 -9.95 -20.5 -9.9 -20.66 -9.79C-20.83 -9.67 -20.91 -9.53 -20.91 -9.35Z M-10.99 -2.62C-10.99 -1.72 -10.73 -1.02 -10.21 -0.55C-9.68 -0.07 -9 0.17 -8.16 0.17C-7 0.17 -5.94 -0.38 -4.99 -1.47L-4.99 -0.63C-4.99 -0.45 -4.91 -0.3 -4.76 -0.18C-4.6 -0.06 -4.41 0 -4.19 0C-3.94 0 -3.73 -0.06 -3.57 -0.18C-3.41 -0.3 -3.33 -0.45 -3.33 -0.63L-3.33 -6.01C-3.33 -7.17 -3.65 -8.14 -4.3 -8.91C-4.96 -9.69 -5.97 -10.08 -7.34 -10.08C-8.05 -10.08 -8.73 -9.96 -9.37 -9.71C-10 -9.47 -10.32 -9.18 -10.32 -8.86C-10.32 -8.65 -10.26 -8.45 -10.14 -8.26C-10.02 -8.07 -9.87 -7.98 -9.67 -7.98C-9.63 -7.98 -9.38 -8.08 -8.94 -8.28C-8.49 -8.49 -7.97 -8.59 -7.38 -8.59C-6.61 -8.59 -6.03 -8.33 -5.65 -7.81C-5.26 -7.29 -5.07 -6.69 -5.07 -5.98L-5.07 -5.54L-6.08 -5.54C-7.68 -5.54 -8.89 -5.33 -9.73 -4.9C-10.57 -4.48 -10.99 -3.72 -10.99 -2.62ZM-9.23 -2.81C-9.23 -3.11 -9.17 -3.36 -9.04 -3.56C-8.91 -3.76 -8.75 -3.92 -8.55 -4.04C-8.34 -4.16 -8.09 -4.25 -7.77 -4.32C-7.45 -4.38 -7.15 -4.42 -6.86 -4.44C-6.56 -4.46 -6.21 -4.47 -5.81 -4.47L-5.07 -4.47L-5.07 -3.38C-5.07 -2.89 -5.35 -2.41 -5.9 -1.94C-6.45 -1.47 -7.02 -1.24 -7.61 -1.24C-8.1 -1.24 -8.49 -1.37 -8.79 -1.64C-9.08 -1.9 -9.23 -2.3 -9.23 -2.81Z M-0.98 -3.17C-0.98 -1.06 0.19 0 2.51 0L3.16 0C3.38 0 3.57 -0.08 3.71 -0.23C3.85 -0.38 3.92 -0.57 3.92 -0.78C3.92 -0.99 3.85 -1.17 3.72 -1.31C3.58 -1.46 3.4 -1.53 3.16 -1.53L2.51 -1.53C1.87 -1.53 1.41 -1.66 1.16 -1.9C0.9 -2.15 0.77 -2.57 0.77 -3.17L0.77 -8.59L3.41 -8.59C3.57 -8.59 3.69 -8.66 3.79 -8.79C3.89 -8.92 3.94 -9.08 3.94 -9.26C3.94 -9.44 3.89 -9.6 3.79 -9.74C3.69 -9.88 3.57 -9.95 3.41 -9.95L0.77 -9.95L0.77 -13.99C0.77 -14.15 0.68 -14.3 0.49 -14.42C0.31 -14.54 0.11 -14.59 -0.12 -14.59C-0.33 -14.59 -0.52 -14.54 -0.7 -14.42C-0.89 -14.3 -0.98 -14.15 -0.98 -13.99Z M5.34 -13.69C5.34 -13.43 5.45 -13.19 5.67 -12.99C5.89 -12.79 6.14 -12.68 6.44 -12.68C6.73 -12.68 6.98 -12.79 7.19 -12.99C7.4 -13.19 7.51 -13.43 7.51 -13.69C7.51 -13.96 7.4 -14.19 7.19 -14.39C6.98 -14.58 6.73 -14.68 6.44 -14.68C6.13 -14.68 5.87 -14.58 5.66 -14.39C5.45 -14.19 5.34 -13.96 5.34 -13.69ZM5.58 -0.63C5.58 -0.46 5.66 -0.31 5.83 -0.19C6 -0.06 6.2 0 6.44 0C6.67 0 6.88 -0.07 7.06 -0.2C7.23 -0.33 7.32 -0.48 7.32 -0.63L7.32 -9.35C7.32 -9.53 7.23 -9.67 7.07 -9.79C6.9 -9.9 6.69 -9.95 6.44 -9.95C6.2 -9.95 6 -9.9 5.83 -9.79C5.66 -9.67 5.58 -9.53 5.58 -9.35Z M9.42 -3.91C9.42 -2.83 9.83 -1.88 10.66 -1.06C11.48 -0.24 12.45 0.17 13.56 0.17C14.66 0.17 15.63 -0.24 16.46 -1.07C17.3 -1.9 17.71 -2.84 17.71 -3.91L17.71 -6.05C17.71 -7.14 17.3 -8.09 16.47 -8.88C15.65 -9.68 14.68 -10.08 13.56 -10.08C12.44 -10.08 11.47 -9.68 10.65 -8.87C9.83 -8.07 9.42 -7.13 9.42 -6.05ZM11.16 -3.91L11.16 -6.05C11.16 -6.68 11.4 -7.24 11.87 -7.75C12.33 -8.25 12.9 -8.51 13.56 -8.51C14.21 -8.51 14.78 -8.25 15.26 -7.75C15.73 -7.24 15.97 -6.68 15.97 -6.05L15.97 -3.91C15.97 -3.26 15.73 -2.68 15.26 -2.17C14.78 -1.66 14.21 -1.41 13.56 -1.41C12.91 -1.41 12.35 -1.66 11.88 -2.16C11.4 -2.67 11.16 -3.25 11.16 -3.91Z M19.81 -0.63C19.81 -0.46 19.9 -0.31 20.07 -0.19C20.23 -0.06 20.44 0 20.67 0C20.9 0 21.1 -0.07 21.28 -0.2C21.47 -0.33 21.56 -0.48 21.56 -0.63L21.56 -6.05C21.56 -6.78 21.79 -7.37 22.25 -7.82C22.71 -8.28 23.24 -8.51 23.85 -8.51C24.49 -8.51 25.05 -8.25 25.53 -7.75C26 -7.24 26.24 -6.68 26.24 -6.05L26.24 -0.63C26.24 -0.43 26.33 -0.28 26.5 -0.17C26.68 -0.06 26.88 0 27.1 0C27.34 0 27.54 -0.06 27.72 -0.17C27.9 -0.28 27.98 -0.43 27.98 -0.63L27.98 -6.05C27.98 -7.15 27.62 -8.1 26.88 -8.89C26.15 -9.68 25.28 -10.08 24.29 -10.08C23.63 -10.08 23.05 -9.93 22.55 -9.62C22.06 -9.31 21.7 -8.93 21.47 -8.48L21.47 -9.35C21.47 -9.51 21.39 -9.66 21.23 -9.78C21.07 -9.89 20.88 -9.95 20.67 -9.95C20.42 -9.95 20.22 -9.9 20.06 -9.79C19.89 -9.67 19.81 -9.53 19.81 -9.35Z M29.73 -2.62C29.73 -1.72 29.99 -1.02 30.51 -0.55C31.04 -0.07 31.72 0.17 32.56 0.17C33.72 0.17 34.78 -0.38 35.73 -1.47L35.73 -0.63C35.73 -0.45 35.81 -0.3 35.96 -0.18C36.12 -0.06 36.31 0 36.53 0C36.78 0 36.99 -0.06 37.15 -0.18C37.31 -0.3 37.39 -0.45 37.39 -0.63L37.39 -6.01C37.39 -7.17 37.07 -8.14 36.41 -8.91C35.76 -9.69 34.75 -10.08 33.38 -10.08C32.67 -10.08 31.99 -9.96 31.35 -9.71C30.72 -9.47 30.4 -9.18 30.4 -8.86C30.4 -8.65 30.46 -8.45 30.58 -8.26C30.69 -8.07 30.85 -7.98 31.05 -7.98C31.09 -7.98 31.34 -8.08 31.78 -8.28C32.23 -8.49 32.75 -8.59 33.34 -8.59C34.11 -8.59 34.68 -8.33 35.07 -7.81C35.46 -7.29 35.65 -6.69 35.65 -5.98L35.65 -5.54L34.64 -5.54C33.04 -5.54 31.83 -5.33 30.99 -4.9C30.15 -4.48 29.73 -3.72 29.73 -2.62ZM31.49 -2.81C31.49 -3.11 31.55 -3.36 31.68 -3.56C31.8 -3.76 31.97 -3.92 32.17 -4.04C32.38 -4.16 32.63 -4.25 32.95 -4.32C33.26 -4.38 33.57 -4.42 33.86 -4.44C34.16 -4.46 34.51 -4.47 34.91 -4.47L35.65 -4.47L35.65 -3.38C35.65 -2.89 35.37 -2.41 34.82 -1.94C34.27 -1.47 33.69 -1.24 33.11 -1.24C32.62 -1.24 32.22 -1.37 31.93 -1.64C31.64 -1.9 31.49 -2.3 31.49 -2.81Z M39.97 -0.63C39.97 -0.46 40.06 -0.31 40.23 -0.19C40.39 -0.06 40.6 0 40.83 0C41.07 0 41.28 -0.07 41.45 -0.2C41.63 -0.33 41.72 -0.48 41.72 -0.63L41.72 -15.35C41.72 -15.53 41.63 -15.68 41.46 -15.79C41.3 -15.9 41.09 -15.96 40.83 -15.96C40.58 -15.96 40.38 -15.9 40.22 -15.79C40.05 -15.68 39.97 -15.53 39.97 -15.35Z M47.7 -14.64C47.7 -14.59 47.72 -14.53 47.74 -14.45L51.9 -0.48C52.03 -0.08 52.39 0.13 52.99 0.13C53.6 0.13 53.95 -0.08 54.06 -0.48L55.89 -7.41L57.7 -0.48C57.8 -0.08 58.16 0.13 58.79 0.13C59.39 0.13 59.76 -0.08 59.88 -0.48L64.02 -14.45C64.03 -14.49 64.04 -14.55 64.04 -14.64C64.04 -14.83 63.93 -15 63.7 -15.14C63.48 -15.28 63.24 -15.35 62.99 -15.35C62.63 -15.35 62.4 -15.22 62.32 -14.95L58.79 -2.48L56.77 -10.16C56.68 -10.53 56.38 -10.71 55.89 -10.71C55.37 -10.71 55.07 -10.53 54.97 -10.16L52.97 -2.48L49.42 -14.95C49.34 -15.22 49.12 -15.35 48.77 -15.35C48.52 -15.35 48.28 -15.28 48.05 -15.14C47.82 -15 47.7 -14.83 47.7 -14.64Z M65.43 -13.69C65.43 -13.43 65.53 -13.19 65.75 -12.99C65.97 -12.79 66.22 -12.68 66.52 -12.68C66.81 -12.68 67.06 -12.79 67.27 -12.99C67.48 -13.19 67.59 -13.43 67.59 -13.69C67.59 -13.96 67.48 -14.19 67.27 -14.39C67.06 -14.58 66.81 -14.68 66.52 -14.68C66.21 -14.68 65.95 -14.58 65.74 -14.39C65.53 -14.19 65.43 -13.96 65.43 -13.69ZM65.66 -0.63C65.66 -0.46 65.74 -0.31 65.91 -0.19C66.08 -0.06 66.28 0 66.52 0C66.76 0 66.96 -0.07 67.14 -0.2C67.31 -0.33 67.4 -0.48 67.4 -0.63L67.4 -9.35C67.4 -9.53 67.32 -9.67 67.15 -9.79C66.98 -9.9 66.77 -9.95 66.52 -9.95C66.28 -9.95 66.08 -9.9 65.91 -9.79C65.74 -9.67 65.66 -9.53 65.66 -9.35Z M69.84 -3.17C69.84 -1.06 71 0 73.32 0L73.97 0C74.2 0 74.38 -0.08 74.52 -0.23C74.66 -0.38 74.73 -0.57 74.73 -0.78C74.73 -0.99 74.66 -1.17 74.53 -1.31C74.4 -1.46 74.21 -1.53 73.97 -1.53L73.32 -1.53C72.68 -1.53 72.23 -1.66 71.97 -1.9C71.71 -2.15 71.58 -2.57 71.58 -3.17L71.58 -8.59L74.22 -8.59C74.38 -8.59 74.5 -8.66 74.6 -8.79C74.7 -8.92 74.75 -9.08 74.75 -9.26C74.75 -9.44 74.7 -9.6 74.6 -9.74C74.5 -9.88 74.38 -9.95 74.22 -9.95L71.58 -9.95L71.58 -13.99C71.58 -14.15 71.49 -14.3 71.31 -14.42C71.12 -14.54 70.92 -14.59 70.7 -14.59C70.49 -14.59 70.29 -14.54 70.11 -14.42C69.93 -14.3 69.84 -14.15 69.84 -13.99Z M76.41 -0.63C76.41 -0.46 76.49 -0.31 76.66 -0.19C76.83 -0.06 77.03 0 77.27 0C77.51 0 77.71 -0.07 77.89 -0.2C78.06 -0.33 78.15 -0.48 78.15 -0.63L78.15 -6.05C78.15 -6.78 78.38 -7.37 78.84 -7.82C79.31 -8.28 79.84 -8.51 80.44 -8.51C81.08 -8.51 81.64 -8.25 82.12 -7.75C82.6 -7.24 82.83 -6.68 82.83 -6.05L82.83 -0.63C82.83 -0.43 82.92 -0.28 83.1 -0.17C83.27 -0.06 83.47 0 83.7 0C83.93 0 84.14 -0.06 84.32 -0.17C84.49 -0.28 84.58 -0.43 84.58 -0.63L84.58 -6.05C84.58 -7.15 84.21 -8.1 83.48 -8.89C82.74 -9.68 81.88 -10.08 80.88 -10.08C80.24 -10.08 79.68 -9.93 79.21 -9.62C78.74 -9.31 78.39 -8.93 78.15 -8.48L78.15 -15.35C78.15 -15.53 78.07 -15.68 77.9 -15.79C77.73 -15.9 77.52 -15.96 77.27 -15.96C77.02 -15.96 76.81 -15.9 76.65 -15.79C76.49 -15.68 76.41 -15.53 76.41 -15.35Z M91.36 -4.45C91.36 -2.87 91.78 -1.71 92.61 -0.98C93.44 -0.24 94.55 0.13 95.94 0.13C97.32 0.13 98.44 -0.24 99.28 -0.98C100.12 -1.71 100.54 -2.87 100.54 -4.45L100.54 -14.74C100.54 -14.94 100.45 -15.09 100.28 -15.19C100.1 -15.3 99.89 -15.35 99.66 -15.35C99.07 -15.35 98.77 -15.15 98.77 -14.74L98.77 -4.45C98.77 -3.46 98.53 -2.71 98.04 -2.22C97.55 -1.72 96.85 -1.47 95.94 -1.47C94.06 -1.47 93.12 -2.46 93.12 -4.45L93.12 -14.74C93.12 -14.94 93.04 -15.09 92.86 -15.19C92.69 -15.3 92.48 -15.35 92.24 -15.35C92 -15.35 91.8 -15.3 91.62 -15.19C91.45 -15.09 91.36 -14.94 91.36 -14.74Z M102.45 -1.43C102.45 -1.05 102.78 -0.69 103.46 -0.35C104.13 0 104.94 0.17 105.89 0.17C107 0.17 107.86 -0.08 108.48 -0.59C109.09 -1.09 109.4 -1.78 109.4 -2.65C109.4 -3.35 109.22 -3.92 108.87 -4.36C108.52 -4.8 108.1 -5.11 107.59 -5.29C107.09 -5.47 106.58 -5.63 106.07 -5.75C105.56 -5.88 105.13 -6.06 104.78 -6.28C104.43 -6.5 104.25 -6.81 104.25 -7.2C104.25 -7.58 104.41 -7.92 104.73 -8.22C105.04 -8.52 105.52 -8.67 106.17 -8.67C106.64 -8.67 107.12 -8.57 107.6 -8.37C108.09 -8.17 108.36 -8.06 108.41 -8.06C108.61 -8.06 108.77 -8.17 108.91 -8.38C109.04 -8.59 109.11 -8.78 109.11 -8.95C109.11 -9.24 108.8 -9.5 108.18 -9.73C107.57 -9.96 106.89 -10.08 106.14 -10.08C104.98 -10.08 104.12 -9.79 103.55 -9.21C102.98 -8.63 102.7 -7.94 102.7 -7.14C102.7 -6.5 102.88 -5.98 103.23 -5.59C103.58 -5.19 104 -4.91 104.51 -4.75C105.01 -4.58 105.51 -4.42 106.02 -4.28C106.52 -4.14 106.95 -3.94 107.3 -3.66C107.65 -3.39 107.82 -3.02 107.82 -2.56C107.82 -2.18 107.67 -1.87 107.35 -1.62C107.04 -1.36 106.53 -1.24 105.83 -1.24C105.3 -1.24 104.84 -1.32 104.44 -1.48C104.05 -1.64 103.75 -1.81 103.54 -1.97C103.33 -2.14 103.17 -2.23 103.06 -2.23C102.89 -2.23 102.75 -2.14 102.63 -1.96C102.51 -1.79 102.45 -1.61 102.45 -1.43Z"></path></g></g></g></svg>